<svg width="24" height="25" viewBox="0 0 24 25" fill="none" xmlns="http://www.w3.org/2000/svg">
<path d="M12 3C14.3869 3 16.6761 3.94821 18.364 5.63604C20.0518 7.32387 21 9.61305 21 12C21 15.074 19.324 17.59 17.558 19.395C16.6757 20.2871 15.7129 21.0958 14.682 21.811L14.256 22.101L14.056 22.234L13.679 22.474L13.343 22.679L12.927 22.921C12.6446 23.0822 12.3251 23.1669 12 23.1669C11.6749 23.1669 11.3554 23.0822 11.073 22.921L10.657 22.679L10.137 22.359L9.945 22.234L9.535 21.961C8.42283 21.2085 7.3869 20.3491 6.442 19.395C4.676 17.589 3 15.074 3 12C3 9.61305 3.94821 7.32387 5.63604 5.63604C7.32387 3.94821 9.61305 3 12 3ZM12 9C11.606 9 11.2159 9.0776 10.8519 9.22836C10.488 9.37913 10.1573 9.6001 9.87868 9.87868C9.6001 10.1573 9.37913 10.488 9.22836 10.8519C9.0776 11.2159 9 11.606 9 12C9 12.394 9.0776 12.7841 9.22836 13.1481C9.37913 13.512 9.6001 13.8427 9.87868 14.1213C10.1573 14.3999 10.488 14.6209 10.8519 14.7716C11.2159 14.9224 11.606 15 12 15C12.7956 15 13.5587 14.6839 14.1213 14.1213C14.6839 13.5587 15 12.7956 15 12C15 11.2044 14.6839 10.4413 14.1213 9.87868C13.5587 9.31607 12.7956 9 12 9Z" fill="#114062"/>
</svg>
