<svg width="24" height="28" viewBox="0 0 24 28" fill="none" xmlns="http://www.w3.org/2000/svg">
<path d="M16.7085 0.692383C15.2789 0.785844 13.6796 1.66854 12.7035 2.85584C11.8173 3.92892 11.0108 5.51777 11.2981 7.07546C12.8593 7.117 14.4758 6.22392 15.4104 5.01931C16.2827 3.89777 16.9508 2.31238 16.7085 0.692383ZM7.07849 6.85738C5.03618 6.85738 2.83118 8.19354 1.45349 10.3189C-0.491893 13.3028 -0.173432 18.8308 2.96965 23.6251C4.09811 25.3351 5.6558 27.2839 7.62195 27.3047C9.36311 27.322 9.79234 26.2351 12.1635 26.2212C14.5346 26.2074 14.957 27.322 16.7085 27.3047C18.6677 27.2839 20.3431 25.2278 21.4646 23.5178C22.1432 22.4928 22.7227 21.4056 23.1954 20.2708C18.6435 18.5505 17.83 12.0255 22.33 9.56085C20.9593 7.85084 19.0658 6.86084 17.2485 6.86084C14.8427 6.86084 13.8354 8.04815 12.1635 8.04815C10.4396 8.04815 9.16234 6.85738 7.07849 6.85738Z" fill="#252525"/>
</svg>
