<svg width="26" height="26" viewBox="0 0 26 26" fill="none" xmlns="http://www.w3.org/2000/svg">
<g clip-path="url(#clip0_35_260)">
<path d="M9.05723 0.855259C6.45942 1.75646 4.21908 3.46697 2.66527 5.73554C1.11146 8.00412 0.326083 10.7112 0.424499 13.4591C0.522915 16.207 1.49994 18.851 3.21205 21.0026C4.92417 23.1542 7.28114 24.7 9.93676 25.4131C12.0897 25.9686 14.3454 25.993 16.5099 25.4842C18.4707 25.0437 20.2835 24.1016 21.7708 22.7501C23.3188 21.3005 24.4424 19.4564 25.0208 17.416C25.6495 15.1972 25.7614 12.8639 25.3479 10.5951H13.2579V15.6103H20.2596C20.1196 16.4101 19.8198 17.1736 19.3779 17.8549C18.936 18.5361 18.3613 19.1213 17.688 19.5753C16.833 20.1408 15.8692 20.5214 14.8585 20.6924C13.8448 20.8809 12.805 20.8809 11.7913 20.6924C10.7639 20.48 9.79193 20.056 8.93738 19.4473C7.56456 18.4755 6.53376 17.095 5.99207 15.5026C5.44122 13.8804 5.44122 12.1218 5.99207 10.4996C6.37765 9.36257 7.01508 8.32728 7.85676 7.47104C8.81996 6.47318 10.0394 5.75991 11.3813 5.40948C12.7232 5.05904 14.1357 5.08499 15.4638 5.48448C16.5013 5.80296 17.45 6.35941 18.2344 7.10948C19.0239 6.32406 19.812 5.53661 20.5988 4.74713C21.005 4.3226 21.4479 3.91838 21.848 3.4837C20.6507 2.36951 19.2453 1.50253 17.7124 0.932447C14.9208 -0.0811677 11.8664 -0.108408 9.05723 0.855259Z" fill="white"/>
<path d="M9.05727 0.85527C11.8662 -0.109052 14.9206 -0.0825291 17.7124 0.930426C19.2456 1.50438 20.6504 2.37553 21.846 3.49386C21.4398 3.92855 21.0112 4.3348 20.5968 4.7573C19.8087 5.54407 19.0212 6.32813 18.2345 7.10949C17.4501 6.35942 16.5013 5.80297 15.4638 5.48449C14.1362 5.0836 12.7237 5.05615 11.3815 5.40515C10.0392 5.75415 8.81902 6.46611 7.85477 7.46293C7.01308 8.31917 6.37566 9.35446 5.99008 10.4915L1.7793 7.23136C3.2865 4.2425 5.89613 1.95626 9.05727 0.85527Z" fill="#E33629"/>
<path d="M0.66227 10.4609C0.888594 9.33922 1.26434 8.25297 1.77946 7.2312L5.99024 10.4995C5.43939 12.1217 5.43939 13.8803 5.99024 15.5025C4.58732 16.5858 3.18373 17.6745 1.77946 18.7687C0.489919 16.2018 0.0966328 13.2772 0.66227 10.4609Z" fill="#F8BD00"/>
<path d="M13.258 10.593H25.348C25.7615 12.8618 25.6497 15.1952 25.021 17.414C24.4425 19.4543 23.3189 21.2984 21.771 22.748C20.412 21.6877 19.047 20.6355 17.6881 19.5752C18.3619 19.1208 18.9369 18.535 19.3788 17.853C19.8206 17.171 20.1203 16.4067 20.2597 15.6061H13.258C13.256 13.9365 13.258 12.2647 13.258 10.593Z" fill="#587DBD"/>
<path d="M1.77734 18.7687C3.18161 17.6854 4.58521 16.5966 5.98812 15.5024C6.53089 17.0953 7.56317 18.476 8.9375 19.4471C9.7947 20.053 10.7687 20.4736 11.7975 20.6821C12.8112 20.8706 13.851 20.8706 14.8647 20.6821C15.8754 20.511 16.8392 20.1305 17.6942 19.5649C19.0531 20.6253 20.4181 21.6774 21.777 22.7378C20.2899 24.09 18.4771 25.0328 16.5161 25.4738C14.3516 25.9827 12.0959 25.9583 9.94297 25.4028C8.24018 24.9481 6.64965 24.1466 5.27109 23.0485C3.81197 21.8901 2.62022 20.4302 1.77734 18.7687Z" fill="#319F43"/>
</g>
<defs>
<clipPath id="clip0_35_260">
<rect width="26" height="26" fill="white"/>
</clipPath>
</defs>
</svg>
