<svg width="24" height="24" viewBox="0 0 24 24" fill="none" xmlns="http://www.w3.org/2000/svg">
<path fill-rule="evenodd" clip-rule="evenodd" d="M4.0548 6.0255C3 7.05012 3 8.70038 3 12C3 15.2996 3 16.9499 4.0548 17.9745C5.1096 18.9991 6.8061 19 10.2 19H13.8C17.1939 19 18.8913 19 19.9452 17.9745C20.9991 16.949 21 15.2996 21 12C21 8.70038 21 7.05012 19.9452 6.0255C18.8904 5.00087 17.1939 5 13.8 5H10.2C6.8061 5 5.1087 5 4.0548 6.0255ZM8.4 12.875C8.63869 12.875 8.86761 12.7828 9.0364 12.6187C9.20518 12.4546 9.3 12.2321 9.3 12C9.3 11.7679 9.20518 11.5454 9.0364 11.3813C8.86761 11.2172 8.63869 11.125 8.4 11.125C8.1613 11.125 7.93239 11.2172 7.7636 11.3813C7.59482 11.5454 7.5 11.7679 7.5 12C7.5 12.2321 7.59482 12.4546 7.7636 12.6187C7.93239 12.7828 8.1613 12.875 8.4 12.875ZM12.9 12C12.9 12.2321 12.8052 12.4546 12.6364 12.6187C12.4676 12.7828 12.2387 12.875 12 12.875C11.7613 12.875 11.5324 12.7828 11.3636 12.6187C11.1948 12.4546 11.1 12.2321 11.1 12C11.1 11.7679 11.1948 11.5454 11.3636 11.3813C11.5324 11.2172 11.7613 11.125 12 11.125C12.2387 11.125 12.4676 11.2172 12.6364 11.3813C12.8052 11.5454 12.9 11.7679 12.9 12ZM15.6 12.875C15.8387 12.875 16.0676 12.7828 16.2364 12.6187C16.4052 12.4546 16.5 12.2321 16.5 12C16.5 11.7679 16.4052 11.5454 16.2364 11.3813C16.0676 11.2172 15.8387 11.125 15.6 11.125C15.3613 11.125 15.1324 11.2172 14.9636 11.3813C14.7948 11.5454 14.7 11.7679 14.7 12C14.7 12.2321 14.7948 12.4546 14.9636 12.6187C15.1324 12.7828 15.3613 12.875 15.6 12.875Z" fill="#114062"/>
</svg>
