<svg width="138" height="102" viewBox="0 0 138 102" fill="none" xmlns="http://www.w3.org/2000/svg">
<g clip-path="url(#clip0_35_312)">
<path d="M97.5101 50.7905C97.4063 53.8481 96.5694 56.4294 94.7215 58.6457C94.4705 58.9464 94.2093 59.2302 93.9348 59.5073C81.2539 72.3054 68.5731 85.1002 55.8922 97.8983C55.8152 97.976 55.7415 98.0504 55.6645 98.1281C55.2829 98.5099 55.2762 98.5132 54.9013 98.1348C51.3896 94.5941 47.8813 91.0465 44.3629 87.5125C44.0783 87.2253 44.0683 87.0699 44.3595 86.776C56.0027 74.8664 67.7964 63.1021 79.4964 51.25C79.9115 50.831 79.9115 50.929 79.5031 50.5168C77.1196 48.1079 74.7327 45.7023 72.3492 43.2967C72.2655 43.2123 72.1818 43.1211 72.0914 43.04C71.7366 42.7224 71.731 42.3902 72.0747 42.0433C75.5194 38.5667 78.9642 35.0901 82.4089 31.6135C82.6566 31.3635 82.9054 31.3635 83.1554 31.6135C85.9105 34.3907 88.6924 37.1443 91.404 39.9621C92.733 41.3405 94.1323 42.6649 95.2973 44.1988C96.4054 45.6618 97.0883 47.3139 97.336 49.1417C97.4197 49.7533 97.4666 50.3715 97.5101 50.7905Z" fill="#EF6826"/>
<path d="M40.4294 51.3176C40.4093 47.9897 41.5007 45.405 43.4356 43.1346C43.854 42.6413 44.3093 42.1886 44.7646 41.7291C57.2614 29.1134 69.7615 16.5011 82.2616 3.88877C82.5562 3.59146 82.8519 3.59258 83.1487 3.89215C84.6451 5.40239 86.1716 6.87546 87.6245 8.42623C89.5762 10.5041 91.6183 12.4873 93.6135 14.5212C93.8779 14.7915 93.8612 14.9402 93.6068 15.2003C90.3261 18.4978 87.0286 21.7785 83.7848 25.1098C75.3587 33.7725 66.7854 42.2866 58.2991 50.8885C58.0313 51.1588 58.0045 51.3108 58.2924 51.5845C60.6425 53.8313 62.9122 56.1591 65.2053 58.4633C65.4497 58.71 65.7142 58.9397 65.9786 59.1627C66.1996 59.3485 66.1828 59.5141 65.9719 59.6898C65.8883 59.7573 65.8179 59.8418 65.7443 59.9161C63.2068 62.4737 60.6592 65.0212 58.1451 67.5991C57.2547 68.5113 56.3809 69.4404 55.4838 70.3493C55.0821 70.7581 55.082 70.7547 54.6703 70.3391C51.1318 66.7679 47.5833 63.2069 44.0583 59.6222C42.3476 57.8856 41.1625 55.8348 40.6503 53.4191C40.483 52.6285 40.3859 51.8244 40.4361 51.3108L40.4294 51.3176Z" fill="#114062"/>
<path d="M90.8685 102C88.1168 101.963 85.673 101.071 83.5305 99.3242C82.9882 98.885 82.476 98.4153 81.9839 97.9187C78.5023 94.4016 75.0208 90.8912 71.5292 87.3842C71.3685 87.222 71.3752 87.1342 71.5191 86.999C71.9008 86.6409 72.2924 86.2963 72.6607 85.9246C75.8342 82.7285 79.0011 79.5289 82.1747 76.3294C82.5764 75.924 82.6099 75.9138 82.9915 76.3395C84.6285 78.1606 86.4362 79.8094 88.1101 81.5966C88.8633 82.4008 89.6466 83.1745 90.3965 83.9786C90.6308 84.2286 90.758 84.2117 90.989 83.9752C96.3854 78.5154 101.755 73.0285 107.202 67.6227C113.622 61.2507 119.943 54.7773 126.333 48.3782C126.606 48.1057 126.879 48.1057 127.154 48.3782C127.371 48.5978 127.589 48.8175 127.806 49.0371C131.101 52.3346 134.398 55.6355 137.692 58.933C138.097 59.3384 138.097 59.2607 137.692 59.6695C124.84 72.6366 111.999 85.6172 99.1305 98.564C97.219 100.486 94.869 101.628 92.1473 101.919C91.7188 101.963 91.297 101.98 90.8685 101.993V102Z" fill="#114062"/>
<path d="M66.397 14.7714C66.3636 14.9437 66.2196 15.035 66.1091 15.1465C63.5281 17.7547 60.9437 20.363 58.3594 22.9679C57.4521 23.8835 56.5315 24.7924 55.6411 25.7249C55.3666 26.012 55.2159 26.0357 54.9213 25.735C52.4273 23.1909 49.9099 20.6705 47.4126 18.1298C47.1548 17.8662 47.0242 17.8662 46.7598 18.1298C34.9493 29.8907 23.2827 41.7969 11.5291 53.6152C11.277 53.8675 11.0292 53.8709 10.786 53.6254C7.25755 50.0643 3.72913 46.4999 0.190666 42.9456C-0.077146 42.6787 -0.0537125 42.5368 0.197361 42.28C13.1695 29.2014 26.1249 16.1127 39.107 3.04768C40.5967 1.54758 42.4815 0.69279 44.5302 0.267086C47.2753 -0.303898 49.9132 0.0440983 52.4072 1.37189C53.1939 1.79084 53.8902 2.33141 54.5464 2.91929C55.236 3.53757 55.8787 4.20316 56.5483 4.84509C59.7988 7.96016 62.9088 11.2171 66.0924 14.3998C66.2029 14.5113 66.3401 14.6059 66.3937 14.7748L66.397 14.7714Z" fill="#EF6826"/>
</g>
<defs>
<clipPath id="clip0_35_312">
<rect width="138" height="102" fill="white"/>
</clipPath>
</defs>
</svg>
