<svg width="20" height="20" viewBox="0 0 20 20" fill="none" xmlns="http://www.w3.org/2000/svg">
<path d="M0 10C0.939992 8.19422 2.37147 6.67813 4.13625 5.61926C5.90102 4.5604 7.93036 4 10 4C12.0696 4 14.099 4.5604 15.8638 5.61926C17.6285 6.67813 19.06 8.19422 20 10C19.06 11.8058 17.6285 13.3219 15.8638 14.3807C14.099 15.4396 12.0696 16 10 16C7.93036 16 5.90102 15.4396 4.13625 14.3807C2.37147 13.3219 0.939992 11.8058 0 10ZM10 13.9973C11.0825 13.9973 12.1207 13.5762 12.8862 12.8265C13.6516 12.0769 14.0816 11.0602 14.0816 10C14.0816 8.93984 13.6516 7.9231 12.8862 7.17346C12.1207 6.42381 11.0825 6.00267 10 6.00267C8.91749 6.00267 7.87931 6.42381 7.11385 7.17346C6.3484 7.9231 5.91837 8.93984 5.91837 10C5.91837 11.0602 6.3484 12.0769 7.11385 12.8265C7.87931 13.5762 8.91749 13.9973 10 13.9973ZM10 11.9987C9.45874 11.9987 8.93965 11.7881 8.55693 11.4133C8.1742 11.0384 7.95918 10.5301 7.95918 10C7.95918 9.46992 8.1742 8.96155 8.55693 8.58673C8.93965 8.21191 9.45874 8.00133 10 8.00133C10.5413 8.00133 11.0603 8.21191 11.4431 8.58673C11.8258 8.96155 12.0408 9.46992 12.0408 10C12.0408 10.5301 11.8258 11.0384 11.4431 11.4133C11.0603 11.7881 10.5413 11.9987 10 11.9987Z" fill="#114062"/>
</svg>
