<svg width="22" height="22" viewBox="0 0 22 22" fill="none" xmlns="http://www.w3.org/2000/svg">
<path fill-rule="evenodd" clip-rule="evenodd" d="M15.1727 20.2886C13.8527 20.24 10.1118 19.723 6.194 15.8061C2.27708 11.8883 1.761 8.14826 1.7115 6.82735C1.63816 4.81435 3.18 2.8591 4.96108 2.09551C5.17556 2.0029 5.41043 1.96764 5.64265 1.99319C5.87487 2.01874 6.09646 2.10423 6.28566 2.24126C7.75233 3.3101 8.76433 4.9271 9.63333 6.19851C9.82453 6.47785 9.90628 6.81777 9.86301 7.15349C9.81973 7.48922 9.65445 7.7973 9.39866 8.01901L7.61025 9.34726C7.52384 9.40966 7.46303 9.50129 7.43909 9.60514C7.41514 9.709 7.42971 9.81801 7.48008 9.91193C7.88525 10.648 8.60575 11.7443 9.43075 12.5693C10.2557 13.3943 11.4043 14.1625 12.1917 14.6135C12.2905 14.6689 12.4067 14.6844 12.5165 14.6568C12.6263 14.6292 12.7213 14.5606 12.7821 14.465L13.9462 12.6931C14.1603 12.4088 14.476 12.2183 14.8273 12.1616C15.1786 12.1049 15.5383 12.1863 15.8309 12.3888C17.1207 13.2816 18.6258 14.2762 19.7277 15.6869C19.8758 15.8775 19.9701 16.1044 20.0005 16.3439C20.031 16.5833 19.9966 16.8266 19.9009 17.0482C19.1337 18.8384 17.1922 20.3628 15.1727 20.2886Z" fill="#114062"/>
</svg>
