<svg width="86" height="116" viewBox="0 0 86 116" fill="none" xmlns="http://www.w3.org/2000/svg">
<g clip-path="url(#clip0_35_492)">
<path d="M42.7192 81.3432C40.1685 81.2567 38.0152 80.5585 36.1663 79.017C35.9155 78.8076 35.6787 78.5897 35.4476 78.3607C24.7714 67.7823 14.0979 57.2039 3.4217 46.6255C3.35687 46.5612 3.29487 46.4998 3.23004 46.4356C2.91156 46.1172 2.90874 46.1116 3.22441 45.7989C6.17813 42.8694 9.13749 39.9428 12.0856 37.0077C12.3251 36.7703 12.4548 36.762 12.7 37.0049C22.635 46.7176 32.4488 56.556 42.3359 66.3162C42.6853 66.6625 42.6036 66.6625 42.9475 66.3218C44.957 64.3334 46.9637 62.3423 48.9705 60.354C49.0409 60.2841 49.117 60.2143 49.1847 60.1389C49.4496 59.8429 49.7267 59.8383 50.0161 60.125C52.9163 62.9986 55.8165 65.8722 58.7166 68.7458C58.9252 68.9524 58.9252 69.16 58.7166 69.3685C56.3999 71.6668 54.1028 73.9875 51.7523 76.2495C50.6023 77.3582 49.4975 78.5255 48.2179 79.4973C46.9976 80.4217 45.6193 80.9914 44.0946 81.198C43.5844 81.2678 43.0687 81.3069 42.7192 81.3432Z" fill="#EF6826"/>
<path d="M42.2795 33.7264C45.0556 33.7097 47.2118 34.62 49.1057 36.2342C49.5172 36.5833 49.8949 36.9631 50.2782 37.3428C60.8023 47.7677 71.3235 58.1953 81.8447 68.6229C82.0927 68.8687 82.0918 69.1153 81.8419 69.363C80.5821 70.6113 79.3532 71.8847 78.0596 73.0967C76.3262 74.7248 74.6718 76.4283 72.9751 78.0927C72.7496 78.3133 72.6256 78.2993 72.4086 78.0871C69.6578 75.3503 66.9211 72.5996 64.1421 69.8936C56.9156 62.8645 49.8132 55.7127 42.6374 48.6334C42.412 48.41 42.2851 48.3876 42.0568 48.6278C40.1826 50.5882 38.2407 52.4816 36.3185 54.3945C36.1128 54.5984 35.9211 54.819 35.7351 55.0396C35.5801 55.2239 35.442 55.21 35.2954 55.0341C35.239 54.9642 35.1686 54.9056 35.1066 54.8442C32.973 52.7274 30.8479 50.6022 28.6974 48.5049C27.9365 47.7621 27.1614 47.0332 26.4032 46.2848C26.0622 45.9497 26.065 45.9497 26.4117 45.6062C29.3908 42.6544 32.3614 39.6942 35.3518 36.7536C36.8004 35.3266 38.5112 34.338 40.5264 33.9107C41.1859 33.7711 41.8567 33.6901 42.2851 33.732L42.2795 33.7264Z" fill="#114062"/>
<path d="M-8.08182e-05 75.8027C0.0309251 73.5072 0.774986 71.4686 2.23212 69.6813C2.59851 69.2289 2.99028 68.8016 3.40459 68.3911C6.33858 65.4868 9.26694 62.5825 12.1925 59.6698C12.3278 59.5358 12.401 59.5413 12.5138 59.6614C12.8125 59.9798 13.1 60.3065 13.41 60.6137C16.0763 63.2611 18.7453 65.9029 21.4144 68.5503C21.7526 68.8854 21.7611 68.9134 21.406 69.2317C19.8868 70.5973 18.5114 72.1053 17.0205 73.5016C16.3497 74.13 15.7043 74.7834 15.0335 75.409C14.8249 75.6045 14.839 75.7106 15.0363 75.9033C19.5909 80.405 24.168 84.8843 28.6775 89.4279C33.9931 94.7841 39.3932 100.057 44.7313 105.388C44.9587 105.615 44.9587 105.843 44.7313 106.072C44.5481 106.253 44.3649 106.435 44.1817 106.616C41.4309 109.364 38.6773 112.115 35.9265 114.863C35.5883 115.201 35.6532 115.201 35.3121 114.863C24.495 104.142 13.6665 93.4297 2.86627 82.6949C1.26258 81.1003 0.309947 79.1399 0.0675613 76.8695C0.0309212 76.5121 0.0168297 76.1602 0.00555349 75.8027L-8.08182e-05 75.8027Z" fill="#114062"/>
<path d="M72.7659 55.3886C72.6222 55.3606 72.5461 55.2406 72.4531 55.1484C70.2772 52.9953 68.1014 50.8394 65.9284 48.6835C65.1646 47.9267 64.4064 47.1587 63.6285 46.4159C63.389 46.1869 63.3693 46.0612 63.6201 45.8155C65.7424 43.735 67.8449 41.635 69.9644 39.5517C70.1842 39.3366 70.1842 39.2277 69.9644 39.0071C60.1534 29.1548 50.2212 19.4225 40.3623 9.61763C40.1519 9.40726 40.1491 9.2006 40.3539 8.99767C43.3245 6.05426 46.298 3.11085 49.263 0.159053C49.4856 -0.0643563 49.604 -0.044808 49.8182 0.164638C60.7284 10.986 71.647 21.7934 82.5459 32.6232C83.7973 33.8659 84.5104 35.4381 84.8655 37.1472C85.3418 39.4372 85.0515 41.6377 83.9438 43.7182C83.5944 44.3745 83.1434 44.9554 82.653 45.5027C82.1372 46.078 81.582 46.6142 81.0465 47.1727C78.4479 49.8843 75.7309 52.4787 73.0759 55.1344C72.9829 55.2266 72.904 55.3411 72.7631 55.3858L72.7659 55.3886Z" fill="#EF6826"/>
</g>
<defs>
<clipPath id="clip0_35_492">
<rect width="115.12" height="85.0886" fill="white" transform="translate(85.0886) rotate(90)"/>
</clipPath>
</defs>
</svg>
